<svg t="1657380744761" viewBox="0 0 1024 1024" version="1.1" xmlns="http://www.w3.org/2000/svg" p-id="3798" width="200" height="200"><path d="M866.867 257.024H157.184c-30.208 0-54.63-22.886-54.63-51.2 0-28.262 24.473-51.2 54.63-51.2h709.632c30.208 0 54.63 22.938 54.63 51.2 0 28.314-24.473 51.2-54.63 51.2z m0 307.2H157.184c-30.208 0-54.63-22.886-54.63-51.2 0-28.262 24.473-51.2 54.63-51.2h709.632c30.208 0 54.63 22.938 54.63 51.2 0 28.314-24.473 51.2-54.63 51.2z m0 307.2H157.184c-30.208 0-54.63-22.886-54.63-51.2 0-28.262 24.473-51.2 54.63-51.2h709.632c30.208 0 54.63 22.938 54.63 51.2 0 28.314-24.473 51.2-54.63 51.2z" p-id="3799"></path></svg>