<svg t="1656695407567" viewBox="0 0 1062 1024" version="1.1" xmlns="http://www.w3.org/2000/svg" p-id="3597" width="200" height="200"><path d="M118.709401 455.110858A37.925842 37.925842 0 0 0 151.704884 417.185017a37.925842 37.925842 0 0 0-32.995483-37.925842H44.75401A44.373235 44.373235 0 0 0 0.001517 423.63241v555.992838A43.993976 43.993976 0 0 0 44.374752 1023.998483h75.851683a37.925842 37.925842 0 0 0 0-75.851683H75.8532V455.110858h42.856201m923.873503-55.371729a113.777525 113.777525 0 0 0-100.882739-52.716919c-4.171843 0-2.27555-3.792584-261.688307-4.93036a397.46282 397.46282 0 0 0 37.925841-139.187839 470.280436 470.280436 0 0 0-11.377752-101.641255A141.084131 141.084131 0 0 0 570.785434 0.000759a122.12121 122.12121 0 0 0-118.328626 130.844153v11.757011c-3.792584 133.498963-132.361187 241.208353-262.826083 255.999431V1023.998483h662.943712a95.952379 95.952379 0 0 0 57.64728-20.100696 130.844154 130.844154 0 0 0 46.648785-51.958403 44.373235 44.373235 0 0 0 6.447393-13.653303L1061.925083 493.0367a45.890268 45.890268 0 0 0 0-15.170337 132.361187 132.361187 0 0 0-19.342179-79.265009m-40.580651 85.712402L898.843964 923.115744a41.339167 41.339167 0 0 1-15.928853 18.962921 40.201392 40.201392 0 0 1-16.687371 6.068135H265.482409V459.661959c118.328626-49.682853 194.559568-98.22793 236.657251-214.281005a334.885182 334.885182 0 0 0 10.619236-40.959909 343.608125 343.608125 0 0 0 6.447393-62.577639 61.060605 61.060605 0 0 1 54.992471-70.921324 75.851683 75.851683 0 0 1 62.956897 61.439864 370.156214 370.156214 0 0 1 7.585168 70.542065 295.821565 295.821565 0 0 1-6.447393 70.162807 288.615655 288.615655 0 0 1-37.925842 92.159796 44.373235 44.373235 0 0 0-4.551101 19.721437c0 24.651797 23.514022 31.09919 48.165819 31.09919h314.405227c15.170337 0 29.961415 17.445887 37.925842 31.099191a43.235459 43.235459 0 0 1 4.171843 35.650291M221.109174 1023.998483" fill="#272536" p-id="3598"></path></svg>