<svg t="1656695387446" viewBox="0 0 1024 1024" version="1.1" xmlns="http://www.w3.org/2000/svg" p-id="3442" width="200" height="200"><path d="M919.5 491.5c-2.1-2.4-52.3-60.5-126.5-119.2-44-34.8-87.4-62.7-129-82.8-53.7-26-104.9-39.1-152.1-39.1-47.2 0-98.3 13.1-152 39-41.6 20-84.9 47.8-128.9 82.5-74.1 58.5-124.2 116.3-126.3 118.8-10.3 11.9-10.4 29.6-0.1 41.6 2.1 2.4 51.8 60.6 125.8 119.4 43.9 34.9 87.2 62.8 128.9 82.9 53.8 26 105.2 39.2 152.7 39.2 47.5 0 98.9-13.1 152.7-39 41.7-20 85.1-47.8 129-82.6 74-58.6 123.8-116.5 125.9-119 10.2-12 10.2-29.7-0.1-41.7z m-87.4 41c-20.3 20.1-47.5 45.2-79.1 70.2-112 88.4-192.9 107-241 107-48.1 0-128.9-18.6-240.9-107.4-31.6-25.1-58.8-50.4-79.1-70.5-11.1-11.1-11.1-29.1 0.1-40.1 20.2-19.8 47.2-44.7 78.6-69.6 112.7-89 193.4-107.7 241.3-107.7 68.3 0 151.5 37.1 240.5 107.4 31.8 25.1 59.2 50.4 79.6 70.6 11.2 11 11.2 29 0 40.1z" p-id="3443"></path><path d="M511.2 363.5c-82 0-148.8 66.7-148.8 148.8 0 82 66.7 148.8 148.8 148.8 82 0 148.8-66.7 148.8-148.8-0.1-82.1-66.8-148.8-148.8-148.8z m0 233.5c-46.7 0-84.8-38-84.8-84.8s38-84.8 84.8-84.8 84.8 38 84.8 84.8-38.1 84.8-84.8 84.8z" p-id="3444"></path></svg>