<svg t="1657371603623" viewBox="0 0 1024 1024" version="1.1" xmlns="http://www.w3.org/2000/svg" p-id="5688" width="200" height="200"><path d="M336.427 325.12a33.493 33.493 0 0 0-35.84 30.08 33.707 33.707 0 0 0 35.84 30.08 28.373 28.373 0 0 0 29.866-30.08 28.373 28.373 0 0 0-29.866-30.08z m166.613 60.373a28.373 28.373 0 0 0 30.293-30.08 28.16 28.16 0 0 0-29.866-30.08 33.493 33.493 0 0 0-35.84 30.08 33.493 33.493 0 0 0 35.413 30.08z" p-id="5689"></path><path d="M512 42.667A469.333 469.333 0 1 0 981.333 512 469.333 469.333 0 0 0 512 42.667z m-98.133 590.506a397.653 397.653 0 0 1-83.414-12.16l-83.2 42.667 23.68-72.533c-59.52-42.667-95.36-96.64-95.36-162.774 0-114.773 106.667-205.226 238.08-205.226 117.12 0 219.734 72.32 240.214 169.386a203.307 203.307 0 0 0-22.827-1.493 196.267 196.267 0 0 0-202.453 190.933 183.68 183.68 0 0 0 7.253 50.56c-7.253 0.214-14.507 0.64-21.973 0.64z m351.146 85.334l17.92 60.373-65.28-36.267a296.747 296.747 0 0 1-71.466 12.16c-113.28 0-202.667-78.506-202.667-175.146S532.907 404.48 646.187 404.48c106.666 0 202.24 78.72 202.24 175.147 0 53.546-35.627 101.546-83.414 138.026z" p-id="5690"></path><path d="M711.467 500.267a24.107 24.107 0 0 0 0 48.213 27.307 27.307 0 0 0 29.866-24.107 27.52 27.52 0 0 0-29.866-24.106z m-130.987 0a24.107 24.107 0 0 0 0 48.213 27.307 27.307 0 0 0 29.867-24.107 27.307 27.307 0 0 0-29.867-24.106z" p-id="5691"></path></svg>